<?xml version="1.0" encoding="utf-8"?>
<!-- Generator: Adobe Illustrator 24.3.0, SVG Export Plug-In . SVG Version: 6.00 Build 0)  -->
<svg version="1.1" id="Capa_1" xmlns="http://www.w3.org/2000/svg" xmlns:xlink="http://www.w3.org/1999/xlink" x="0px" y="0px"
	 viewBox="0 0 225.5 104.6" style="enable-background:new 0 0 225.5 104.6;" xml:space="preserve">
<style type="text/css">
	.st0{fill:#B15034;}
	.st1{fill:#CFA98D;}
	.st2{fill:#A3B69E;}
</style>
<g>
	<path class="st0" d="M28.5,33.7c-0.5,2.2-1,4.3-1.3,6.3c-0.3-2-0.8-4.1-1.3-6.3L20.2,4.5H6.8v57.9h10.5V42.8c0-2.8,0-5.5-0.1-8.1
		c0-2.3-0.1-4.6-0.2-6.6l6.5,34h7.4l6.4-33.9c-0.1,2-0.1,4.2-0.2,6.5C37.1,37.3,37,40,37,42.8v19.6h10.5V4.5H34.3L28.5,33.7z"/>
	<polygon class="st0" points="63,36.8 72.6,36.8 72.6,27.7 63,27.7 63,13.5 75.4,13.5 75.4,4.5 51.9,4.5 51.9,62.4 75.8,62.4 
		75.8,53.3 63,53.3 	"/>
	<path class="st0" d="M101.6,34.7l-10-11.8c-0.4-0.5-0.8-1-1.1-1.5C90.2,21,90,20.5,89.8,20c-0.2-0.4-0.3-0.9-0.5-1.5
		c-0.1-0.5-0.2-1.2-0.2-1.9c0-1.2,0.3-2.1,0.9-2.7c0.6-0.6,1.5-0.9,2.7-0.9c1.5,0,2.5,0.5,3.2,1.7c0.8,1.4,1.1,3.5,1.1,6.2v3.8h8.9
		l0.2-1c0.2-1.2,0.5-2.3,0.7-3.3c0.2-1.1,0.3-2.3,0.3-3.5c0-1.5-0.2-3-0.7-4.5c-0.5-1.6-1.3-3-2.4-4.2c-1.1-1.3-2.6-2.3-4.5-3
		C97.8,4.4,95.5,4,92.9,4c-2.2,0-4.2,0.3-6,1c-1.8,0.7-3.3,1.6-4.5,2.9c-1.2,1.2-2.2,2.7-2.8,4.4c-0.6,1.7-1,3.5-1,5.5
		c0,2.5,0.5,4.8,1.4,7c0.9,2.1,2.2,4.2,3.9,6.3l9,10.4c0.8,0.9,1.4,1.8,1.9,2.5c0.5,0.7,0.8,1.4,1.1,2.1c0.3,0.6,0.4,1.3,0.6,1.9
		c0.1,0.7,0.2,1.4,0.2,2.2c0,1.4-0.3,2.4-0.9,3c-0.6,0.6-1.6,1-2.9,1c-0.8,0-1.5-0.2-2.1-0.4c-0.5-0.3-0.9-0.7-1.3-1.3
		c-0.4-0.7-0.6-1.5-0.8-2.5c-0.2-1.1-0.3-2.3-0.3-3.8v-3.9h-8.9l-0.2,0.9c-0.3,1.2-0.5,2.3-0.7,3.4c-0.2,1.1-0.2,2.2-0.2,3.5
		c0,1.6,0.2,3.2,0.7,4.7c0.5,1.6,1.3,3,2.4,4.2c1.1,1.2,2.7,2.2,4.5,3c1.8,0.7,4.1,1.1,6.9,1.1c2.2,0,4.3-0.3,6-1
		c1.8-0.6,3.4-1.6,4.7-2.8c1.3-1.2,2.3-2.7,3-4.5c0.7-1.7,1-3.7,1-5.8c0-2.5-0.5-5-1.6-7.3C105,39.4,103.5,37.1,101.6,34.7z"/>
	<polygon class="st0" points="108.5,13.5 117.7,13.5 117.7,62.4 128.7,62.4 128.7,13.5 137.8,13.5 137.8,4.5 108.5,4.5 	"/>
	<rect x="141.2" y="4.5" class="st0" width="11.1" height="57.9"/>
	<g>
		<path class="st1" d="M19.2,88l-0.9,2.3h-1.2l3.1-7.9h1.1l3.1,7.9h-1.3L22.2,88H19.2z M21.8,86.9l-1.1-3l-1.1,3H21.8z"/>
		<path class="st1" d="M29.6,82.4h1.1v5c0,0.7,0.1,1.2,0.3,1.5c0.2,0.3,0.6,0.4,1.1,0.4c0.5,0,0.8-0.1,1-0.4s0.3-0.8,0.3-1.5v-5h1.1
			v5c0,0.5,0,0.9-0.1,1.2c-0.1,0.3-0.2,0.5-0.3,0.7c-0.2,0.4-0.5,0.6-0.9,0.8c-0.3,0.2-0.7,0.3-1.2,0.3c-0.5,0-0.9-0.1-1.3-0.3
			c-0.3-0.2-0.6-0.4-0.9-0.8c-0.1-0.2-0.2-0.4-0.3-0.7c-0.1-0.3-0.1-0.7-0.1-1.3V82.4z"/>
		<path class="st1" d="M43.8,90.3h-1.1v-6.8h-1.5v-1.1h4.1v1.1h-1.5V90.3z"/>
		<path class="st1" d="M56.9,90.3h-4.1v-7.9h4.1v1.1h-3v2.4h3v1h-3v2.4h3V90.3z"/>
		<path class="st1" d="M64.3,90.3h-1.1v-7.9h1.2l3.9,6l-0.1-6h1.1v7.9h-1.1l-4-6.1L64.3,90.3z"/>
		<path class="st1" d="M78.5,90.3h-1.1v-6.8h-1.5v-1.1H80v1.1h-1.5V90.3z"/>
		<path class="st1" d="M88.7,90.3h-1.1v-7.9h1.1V90.3z"/>
		<path class="st1" d="M103.1,88.3c-0.3,0.7-0.8,1.2-1.4,1.6c-0.6,0.4-1.3,0.6-2.1,0.6c-0.6,0-1.1-0.1-1.6-0.3
			c-0.5-0.2-0.9-0.6-1.3-1c-0.3-0.4-0.6-0.8-0.8-1.3c-0.2-0.5-0.3-1-0.3-1.5c0-0.5,0.1-1.1,0.3-1.6c0.2-0.5,0.5-0.9,0.9-1.3
			c0.4-0.4,0.8-0.7,1.3-0.9c0.5-0.2,1-0.3,1.5-0.3c0.8,0,1.5,0.2,2.1,0.6c0.6,0.4,1.1,0.9,1.4,1.6h-1.3c-0.3-0.4-0.6-0.6-0.9-0.8
			c-0.4-0.2-0.8-0.3-1.3-0.3c-0.4,0-0.7,0.1-1.1,0.2c-0.3,0.1-0.6,0.3-0.9,0.6c-0.3,0.3-0.5,0.6-0.6,1c-0.2,0.4-0.2,0.7-0.2,1.1
			c0,0.4,0.1,0.8,0.2,1.2c0.1,0.4,0.3,0.7,0.6,1c0.3,0.3,0.6,0.5,0.9,0.7c0.4,0.2,0.7,0.2,1.1,0.2c0.5,0,0.9-0.1,1.2-0.3
			c0.4-0.2,0.7-0.4,0.9-0.7H103.1z"/>
		<path class="st1" d="M125.3,88.3c-0.3,0.7-0.8,1.2-1.4,1.6c-0.6,0.4-1.3,0.6-2.1,0.6c-0.6,0-1.1-0.1-1.6-0.3
			c-0.5-0.2-0.9-0.6-1.3-1c-0.3-0.4-0.6-0.8-0.8-1.3c-0.2-0.5-0.3-1-0.3-1.5c0-0.5,0.1-1.1,0.3-1.6c0.2-0.5,0.5-0.9,0.9-1.3
			c0.4-0.4,0.8-0.7,1.3-0.9c0.5-0.2,1-0.3,1.5-0.3c0.8,0,1.5,0.2,2.1,0.6c0.6,0.4,1.1,0.9,1.4,1.6H124c-0.3-0.4-0.6-0.6-0.9-0.8
			c-0.4-0.2-0.8-0.3-1.3-0.3c-0.4,0-0.7,0.1-1.1,0.2c-0.3,0.1-0.6,0.3-0.9,0.6c-0.3,0.3-0.5,0.6-0.6,1c-0.2,0.4-0.2,0.7-0.2,1.1
			c0,0.4,0.1,0.8,0.2,1.2c0.1,0.4,0.3,0.7,0.6,1c0.3,0.3,0.6,0.5,0.9,0.7c0.4,0.2,0.7,0.2,1.1,0.2c0.5,0,0.9-0.1,1.2-0.3
			c0.4-0.2,0.7-0.4,0.9-0.7H125.3z"/>
		<path class="st1" d="M135.1,90.3h-3.7v-7.9h1.1v6.8h2.6V90.3z"/>
		<path class="st1" d="M141.1,86.3c0-0.6,0.1-1.1,0.3-1.6c0.2-0.5,0.5-0.9,0.9-1.3c0.4-0.4,0.8-0.7,1.3-0.9c0.5-0.2,1-0.3,1.5-0.3
			c0.6,0,1.1,0.1,1.5,0.3c0.5,0.2,0.9,0.5,1.3,0.9c0.4,0.4,0.7,0.8,0.9,1.3c0.2,0.5,0.3,1,0.3,1.6c0,0.6-0.1,1.1-0.3,1.5
			c-0.2,0.5-0.4,0.9-0.8,1.3c-0.4,0.4-0.9,0.8-1.4,1c-0.5,0.2-1,0.3-1.6,0.3c-0.6,0-1.1-0.1-1.6-0.3c-0.5-0.2-0.9-0.6-1.3-1
			c-0.3-0.4-0.6-0.8-0.8-1.3C141.2,87.4,141.1,86.8,141.1,86.3z M142.3,86.3c0,0.4,0.1,0.8,0.2,1.2c0.1,0.4,0.3,0.7,0.6,1
			c0.3,0.3,0.6,0.5,0.9,0.7c0.4,0.2,0.7,0.2,1.1,0.2c0.8,0,1.5-0.3,2-0.9s0.8-1.3,0.8-2.2c0-0.4-0.1-0.7-0.2-1
			c-0.1-0.3-0.3-0.6-0.6-0.9c-0.3-0.3-0.6-0.6-1-0.7c-0.3-0.2-0.7-0.2-1.1-0.2c-0.4,0-0.7,0.1-1.1,0.2c-0.3,0.1-0.6,0.3-0.9,0.6
			c-0.3,0.3-0.5,0.6-0.6,1S142.3,85.9,142.3,86.3z"/>
		<path class="st1" d="M158,90.3h-1.1v-6.8h-1.5v-1.1h4.1v1.1H158V90.3z"/>
		<path class="st1" d="M167.2,90.3h-1.1v-7.9h1.1v3.3h3.2v-3.3h1.1v7.9h-1.1v-3.4h-3.2V90.3z"/>
		<path class="st1" d="M180,90.3h-1.1v-7.9h1.1V90.3z"/>
		<path class="st1" d="M188.3,90.3h-1.1v-7.9h1.2l3.9,6l-0.1-6h1.1v7.9h-1.1l-4-6.1L188.3,90.3z"/>
		<path class="st1" d="M202.3,86.3h4.9c-0.1,1.2-0.5,2.2-1.2,3c-0.7,0.8-1.7,1.1-2.8,1.1c-0.6,0-1.1-0.1-1.6-0.3
			c-0.5-0.2-1-0.6-1.3-1c-0.3-0.4-0.6-0.8-0.8-1.3s-0.3-1-0.3-1.5c0-0.6,0.1-1.1,0.3-1.6c0.2-0.5,0.5-0.9,0.9-1.3
			c0.4-0.4,0.8-0.7,1.3-0.9c0.5-0.2,1-0.3,1.6-0.3c0.8,0,1.5,0.2,2.1,0.6s1.1,0.9,1.4,1.6h-1.4c-0.3-0.3-0.6-0.6-0.9-0.8
			c-0.4-0.2-0.8-0.3-1.2-0.3c-0.4,0-0.7,0.1-1.1,0.2c-0.3,0.1-0.6,0.3-0.9,0.6c-0.3,0.3-0.5,0.6-0.6,1c-0.2,0.4-0.2,0.7-0.2,1.1
			c0,0.4,0.1,0.8,0.2,1.2c0.1,0.4,0.3,0.7,0.6,1c0.3,0.3,0.6,0.5,0.9,0.7c0.4,0.2,0.7,0.2,1.1,0.2c0.6,0,1.1-0.2,1.6-0.5
			c0.5-0.3,0.8-0.8,1.1-1.4h-3.6V86.3z"/>
	</g>
	<path class="st2" d="M218.6,100.6H5.7V72.3h212.9V100.6z M6.8,99.5h210.7V73.4H6.8V99.5z"/>
	<polygon class="st0" points="183.1,60 183.1,60 183.1,53.3 167.7,53.3 184,10.6 184.1,10.4 184.1,4.5 157.6,4.5 157.6,13.5 
		171.4,13.5 155.1,56.3 155.1,56.5 155.1,62.4 183,62.4 183.1,62.4 	"/>
	<path class="st0" d="M208.8,4.5h-11.9L186,61.8v0.6h11.2l1.5-9.9h8.3l1.6,9.9h11.2L208.8,4.5z M200,43.7l2.8-25.1l2.8,25.1H200z"/>
</g>
</svg>
